<svg xmlns="http://www.w3.org/2000/svg" width="16" height="16" viewBox="0 0 16 16" fill="none">
  <path d="M5.55044 7.27725C5.54832 7.78341 5.55044 8.28954 5.55258 8.79568C6.40113 8.82333 7.25177 8.81055 8.10032 8.82333C7.72604 10.7054 5.16555 11.3158 3.81086 10.0866C2.41788 9.00836 2.48381 6.64353 3.93208 5.64187C4.94437 4.83374 6.38412 5.03363 7.39638 5.73331C7.79409 5.36541 8.16622 4.97197 8.52563 4.56365C7.68348 3.89163 6.64994 3.41313 5.55044 3.46418C3.25579 3.38761 1.14615 5.3973 1.10788 7.69197C0.961122 9.56766 2.19459 11.4072 3.93634 12.0708C5.67168 12.7385 7.89617 12.2834 9.00416 10.7246C9.73573 9.73993 9.8931 8.47245 9.80804 7.28151C8.3874 7.27087 6.96893 7.27299 5.55044 7.27725Z" fill="#6D747A"/>
  <path d="M13.8486 7.27101C13.8444 6.84779 13.8422 6.42246 13.8401 5.99927C13.4169 5.99927 12.9958 5.99927 12.5748 5.99927C12.5705 6.42248 12.5663 6.84567 12.5641 7.27101C12.1388 7.27312 11.7156 7.27527 11.2924 7.27953C11.2924 7.70272 11.2924 8.12379 11.2924 8.54489C11.7156 8.54915 12.1409 8.55341 12.5641 8.55765C12.5684 8.98086 12.5684 9.40405 12.5727 9.82727C12.9959 9.82727 13.4169 9.82727 13.8401 9.82727C13.8422 9.40405 13.8444 8.98086 13.8486 8.55553C14.274 8.55127 14.6972 8.54915 15.1204 8.54489C15.1204 8.12379 15.1204 7.7006 15.1204 7.27953C14.6972 7.27527 14.2718 7.27527 13.8486 7.27101Z" fill="#6D747A"/>
</svg>