<svg xmlns="http://www.w3.org/2000/svg" width="16" height="16" viewBox="0 0 16 16" fill="none">
  <path d="M14.8871 4.52748C14.7217 3.90501 14.2346 3.41473 13.6161 3.24833C12.4951 2.94605 8 2.94604 8 2.94604C8 2.94604 3.50484 2.94605 2.38378 3.24836C1.76531 3.41476 1.27822 3.90501 1.11291 4.52751C0.81253 5.6558 0.812531 8.00995 0.812531 8.00995C0.812531 8.00995 0.81253 10.3641 1.11291 11.4924C1.27822 12.1149 1.76531 12.5847 2.38378 12.7512C3.50484 13.0535 8 13.0535 8 13.0535C8 13.0535 12.4951 13.0535 13.6161 12.7511C14.2346 12.5847 14.7217 12.1149 14.8871 11.4924C15.1875 10.3641 15.1875 8.00992 15.1875 8.00992C15.1875 8.00992 15.1875 5.6558 14.8871 4.52748Z" fill="#6D747A"/>
  <path d="M6.5298 10.1469V5.87207L10.2869 8.00951L6.5298 10.1469Z" fill="#EBEDF0"/>
</svg>