<svg xmlns="http://www.w3.org/2000/svg" width="40" height="40" viewBox="0 0 40 40" fill="none">
  <g clip-path="url(#clip0_53_649)">
    <path d="M20 3.33325C10.8 3.33325 3.33333 10.7999 3.33333 19.9999C3.33333 29.1999 10.8 36.6666 20 36.6666C29.2 36.6666 36.6667 29.1999 36.6667 19.9999C36.6667 10.7999 29.2 3.33325 20 3.33325ZM26.6667 21.6666H21.6667V26.6666C21.6667 27.5833 20.9167 28.3333 20 28.3333C19.0833 28.3333 18.3333 27.5833 18.3333 26.6666V21.6666H13.3333C12.4167 21.6666 11.6667 20.9166 11.6667 19.9999C11.6667 19.0833 12.4167 18.3333 13.3333 18.3333H18.3333V13.3333C18.3333 12.4166 19.0833 11.6666 20 11.6666C20.9167 11.6666 21.6667 12.4166 21.6667 13.3333V18.3333H26.6667C27.5833 18.3333 28.3333 19.0833 28.3333 19.9999C28.3333 20.9166 27.5833 21.6666 26.6667 21.6666Z" fill="#0096C8"/>
  </g>
  <defs>
    <clipPath id="clip0_53_649">
      <rect width="40" height="40" fill="white"/>
    </clipPath>
  </defs>
</svg>