<svg width="16" height="16" viewBox="0 0 16 16" fill="none" xmlns="http://www.w3.org/2000/svg">
<g clip-path="url(#clip0_53_4651)">
<path d="M11.8196 5.33333H11.1629V4C11.1629 2.16 9.69203 0.666668 7.8797 0.666668C6.06737 0.666668 4.5965 2.16 4.5965 4V5.33333H3.93985C3.21755 5.33333 2.62657 5.93333 2.62657 6.66667V13.3333C2.62657 14.0667 3.21755 14.6667 3.93985 14.6667H11.8196C12.5419 14.6667 13.1328 14.0667 13.1328 13.3333V6.66667C13.1328 5.93333 12.5419 5.33333 11.8196 5.33333ZM7.8797 11.3333C7.1574 11.3333 6.56642 10.7333 6.56642 10C6.56642 9.26667 7.1574 8.66667 7.8797 8.66667C8.60201 8.66667 9.19299 9.26667 9.19299 10C9.19299 10.7333 8.60201 11.3333 7.8797 11.3333ZM5.90978 5.33333V4C5.90978 2.89333 6.78968 2 7.8797 2C8.96973 2 9.84963 2.89333 9.84963 4V5.33333H5.90978Z" fill="#939CA3"/>
</g>
<defs>
<clipPath id="clip0_53_4651">
<rect width="15.7594" height="16" fill="white"/>
</clipPath>
</defs>
</svg>
