<svg xmlns="http://www.w3.org/2000/svg" width="32" height="32" viewBox="0 0 32 32" fill="none">
  <path d="M16 18.6666C18.2133 18.6666 20 16.88 20 14.6666V6.66663C20 4.45329 18.2133 2.66663 16 2.66663C13.7867 2.66663 12 4.45329 12 6.66663V14.6666C12 16.88 13.7867 18.6666 16 18.6666ZM23.88 14.6666C23.2267 14.6666 22.68 15.1466 22.5733 15.8C22.0267 18.9333 19.2933 21.3333 16 21.3333C12.7067 21.3333 9.97334 18.9333 9.42667 15.8C9.32 15.1466 8.77334 14.6666 8.12 14.6666C7.30667 14.6666 6.66667 15.3866 6.78667 16.1866C7.44 20.1866 10.64 23.32 14.6667 23.8933V26.6666C14.6667 27.4 15.2667 28 16 28C16.7333 28 17.3333 27.4 17.3333 26.6666V23.8933C21.36 23.32 24.56 20.1866 25.2133 16.1866C25.3467 15.3866 24.6933 14.6666 23.88 14.6666Z" fill="white"/>
</svg>