<svg xmlns="http://www.w3.org/2000/svg" width="40" height="40" viewBox="0 0 40 40" fill="none">
  <path d="M36.5334 12.0832V12.2998L34.1001 21.2998C33.8125 22.3681 33.1787 23.3107 32.2981 23.9803C31.4175 24.6498 30.3396 25.0084 29.2334 24.9998H16.4834C15.2317 25.0049 14.0237 24.5403 13.0979 23.6979C12.1722 22.8555 11.596 21.6964 11.4834 20.4498L10.4001 8.18317C10.3625 7.76763 10.1705 7.38129 9.8619 7.10048C9.55332 6.81967 9.15063 6.66481 8.73341 6.6665H5.11674C4.67471 6.6665 4.25079 6.49091 3.93823 6.17835C3.62567 5.86579 3.45007 5.44186 3.45007 4.99984C3.45007 4.55781 3.62567 4.13389 3.93823 3.82133C4.25079 3.50877 4.67471 3.33317 5.11674 3.33317H8.73341C9.98508 3.32809 11.1931 3.79267 12.1189 4.6351C13.0447 5.47754 13.6208 6.63656 13.7334 7.88317V8.33317H33.2167C33.6919 8.32944 34.1623 8.42733 34.5965 8.62027C35.0307 8.81321 35.4186 9.09674 35.7343 9.45186C36.0499 9.80697 36.286 10.2255 36.4267 10.6793C36.5674 11.1331 36.6095 11.6118 36.5501 12.0832H36.5334Z" fill="white"/>
  <path d="M15.1167 36.6667C17.4179 36.6667 19.2834 34.8012 19.2834 32.5C19.2834 30.1989 17.4179 28.3334 15.1167 28.3334C12.8156 28.3334 10.9501 30.1989 10.9501 32.5C10.9501 34.8012 12.8156 36.6667 15.1167 36.6667Z" fill="white"/>
  <path d="M28.4501 36.6667C30.7513 36.6667 32.6168 34.8012 32.6168 32.5C32.6168 30.1989 30.7513 28.3334 28.4501 28.3334C26.1489 28.3334 24.2834 30.1989 24.2834 32.5C24.2834 34.8012 26.1489 36.6667 28.4501 36.6667Z" fill="white"/>
</svg>