<svg xmlns="http://www.w3.org/2000/svg" width="40" height="40" viewBox="0 0 40 40" fill="none">
  <g clip-path="url(#clip0_53_3891)">
    <path d="M28.6833 14.9997L21.3834 4.06633C21.0667 3.59967 20.5334 3.36633 20 3.36633C19.4667 3.36633 18.9334 3.59967 18.6167 4.083L11.3167 14.9997H3.33335C2.41669 14.9997 1.66669 15.7497 1.66669 16.6663C1.66669 16.8163 1.68335 16.9663 1.73335 17.1163L5.96669 32.5663C6.35002 33.9663 7.63335 34.9997 9.16669 34.9997H30.8334C32.3667 34.9997 33.65 33.9663 34.05 32.5663L38.2833 17.1163L38.3334 16.6663C38.3334 15.7497 37.5834 14.9997 36.6667 14.9997H28.6833ZM15 14.9997L20 7.66633L25 14.9997H15ZM20 28.333C18.1667 28.333 16.6667 26.833 16.6667 24.9997C16.6667 23.1663 18.1667 21.6663 20 21.6663C21.8334 21.6663 23.3334 23.1663 23.3334 24.9997C23.3334 26.833 21.8334 28.333 20 28.333Z" fill="#C0504D"/>
  </g>
  <defs>
    <clipPath id="clip0_53_3891">
      <rect width="40" height="40" fill="white"/>
    </clipPath>
  </defs>
</svg>